<?xml version="1.0" encoding="UTF-8"?>
<svg version="1.1" xmlns="http://www.w3.org/2000/svg" width="1000" height="1000">
<path d="M0 0 C0.9480249 0.47945068 1.8960498 0.95890137 2.87280273 1.45288086 C3.97092285 1.99895996 5.06904297 2.54503906 6.20043945 3.10766602 C6.78517029 3.40167297 7.36990112 3.69567993 7.97235107 3.99859619 C35.9463327 18.01770463 64.9245053 29.96505172 94.24389648 40.85522461 C95.95536865 41.49186035 95.95536865 41.49186035 97.70141602 42.14135742 C129.72009754 53.97484969 162.24016476 64.16184688 195.24389648 72.85522461 C196.01546082 73.0593396 196.78702515 73.26345459 197.58197021 73.47375488 C259.00754352 89.70309989 321.25717987 99.95286571 384.24389648 107.85522461 C383.44242413 189.67477281 381.29024797 271.3661641 359.60595703 456.71026611 C359.25426123 458.79382063 358.90612512 460.8779463 358.55834961 462.9621582 C344.53149259 546.54006568 320.54514289 630.36877555 242.72485352 761.92553711 C241.17353345 763.94690767 239.65651503 765.99053046 238.14624023 768.04272461 C233.19551389 774.76240244 228.21325747 781.26499143 222.49755859 787.36499023 C220.35852008 789.7285687 218.40016697 792.16272571 216.43530273 794.67163086 C210.7122468 801.69962576 204.34836631 808.05135829 197.92456055 814.43530273 C195.87241108 816.47672838 193.83118228 818.528636 191.79077148 820.58178711 C185.28039671 827.09837097 178.75704267 833.36792668 171.50366211 839.06079102 C169.28311238 840.82408407 167.19768246 842.67806962 165.11889648 844.60522461 C158.19865061 850.81254995 150.68439808 856.29484976 143.24389648 861.85522461 C142.53587891 862.38809082 141.82786133 862.92095703 141.09838867 863.4699707 C106.8000672 889.19767602 68.3030884 909.71991514 28.86889648 926.41772461 C28.19882568 926.70164062 27.52875488 926.98555664 26.83837891 927.27807617 C22.32464082 929.18223113 17.7908862 931.03208491 13.24389648 932.85522461 C12.54389526 933.13920105 11.84389404 933.42317749 11.12268066 933.71575928 C8.98853719 934.57669694 6.84803482 935.41946612 4.70483398 936.25756836 C3.73859604 936.64967247 3.73859604 936.64967247 2.75283813 937.04969788 C-4.47275095 939.8222967 -9.73446514 939.21470004 -16.81469727 936.39819336 C-17.47241119 936.13949463 -18.13012512 935.8807959 -18.80776978 935.61425781 C-20.94176163 934.76991873 -23.06776709 933.90737111 -25.19360352 933.04272461 C-26.6764963 932.44848397 -28.15948882 931.85449219 -29.64257812 931.26074219 C-42.20270076 926.20082393 -54.55865914 920.73785034 -66.75610352 914.85522461 C-67.47926758 914.50685547 -68.20243164 914.15848633 -68.94750977 913.79956055 C-72.85222732 911.90550921 -76.7260524 909.95696938 -80.58422852 907.9699707 C-83.06294201 906.69773534 -85.55050902 905.44351972 -88.03735352 904.18725586 C-107.80001364 894.12484987 -126.73518127 882.78783046 -144.75610352 869.85522461 C-145.38419922 869.4058252 -146.01229492 868.95642578 -146.65942383 868.4934082 C-166.97846023 853.9036569 -186.72737731 838.22968399 -204.24829102 820.32788086 C-205.67130913 818.93804192 -207.21231291 817.67205447 -208.75610352 816.41772461 C-211.82511648 813.79627603 -214.30489647 811.01388026 -216.91235352 807.94897461 C-218.73712439 805.87677718 -220.64799097 803.9628812 -222.63110352 802.04272461 C-226.52080904 798.20528001 -229.93303438 794.08329709 -233.34985352 789.82397461 C-235.42332304 787.26579792 -237.54343741 784.75849785 -239.69458008 782.265625 C-257.17318439 761.93913864 -272.5474782 739.1768022 -285.75610352 715.85522461 C-286.14137207 715.1779834 -286.52664063 714.50074219 -286.92358398 713.80297852 C-289.49071029 709.27472607 -292.01249147 704.72330591 -294.50317383 700.15258789 C-295.31900835 698.6566793 -296.13848866 697.16275143 -296.9621582 695.67114258 C-337.68183933 621.78543125 -358.86515321 537.00219075 -396.75610352 107.85522461 C-395.93666008 107.75365807 -395.93666008 107.75365807 -395.10066223 107.65003967 C-317.20284512 97.96280429 -240.08095935 84.12606221 -165.07592773 60.58312988 C-162.67988382 59.83130869 -160.2824748 59.08394565 -157.88500977 58.33666992 C-111.2620284 43.76204335 -64.6242772 26.61236874 -21.22094727 4.00366211 C-20.39248291 3.57408203 -19.56401855 3.14450195 -18.71044922 2.7019043 C-17.21750696 1.9188959 -15.73207787 1.12128754 -14.25683594 0.30541992 C-8.86810756 -2.54084806 -5.56155048 -2.31004608 0 0 Z " fill="#FCFCFC" transform="translate(506.756103515625,21.144775390625)"/>
<path d="M0 0 C1.1324968 0.18432587 1.1324968 0.18432587 2.28787231 0.37237549 C4.4893095 0.73569465 6.6882303 1.11146348 8.88671875 1.4921875 C10.15088623 1.70987793 11.41505371 1.92756836 12.7175293 2.15185547 C19.3100406 3.54804855 25.80129801 5.38867947 32.3125 7.125 C32.3125 41.115 32.3125 75.105 32.3125 110.125 C27.69567009 109.35552835 24.4898165 108.53520076 20.25 106.875 C5.14585557 101.38403074 -10.6451546 98.05911964 -26.6875 97.125 C-27.94119385 97.04910645 -27.94119385 97.04910645 -29.22021484 96.97167969 C-58.42424018 95.46737747 -86.53098402 103.37668361 -108.99609375 122.5390625 C-127.38200914 140.20448484 -135.37976883 163.3732841 -135.890625 188.50390625 C-135.92251488 191.23183016 -135.93444892 193.95940092 -135.9375 196.6875 C-135.93883942 197.39576935 -135.94017883 198.1040387 -135.94155884 198.83377075 C-135.93585175 212.75413515 -134.91586635 226.05408412 -129.6875 239.125 C-129.36265625 240.01960937 -129.0378125 240.91421875 -128.703125 241.8359375 C-120.2648793 263.85629101 -104.4898717 279.5240885 -83.26953125 289.5546875 C-69.97364695 295.38341759 -56.37677364 297.50984531 -41.9375 297.4375 C-40.77444336 297.43331055 -39.61138672 297.42912109 -38.41308594 297.42480469 C-16.18043753 297.1413942 3.97571297 292.93906973 24.79003906 285.41113281 C26.0173877 284.96785645 26.0173877 284.96785645 27.26953125 284.515625 C28.00147705 284.24782227 28.73342285 283.98001953 29.48754883 283.70410156 C31.3125 283.125 31.3125 283.125 33.3125 283.125 C33.3125 317.445 33.3125 351.765 33.3125 387.125 C20.67579188 392.54073205 8.22601125 395.23821733 -5.23583984 397.65576172 C-7.51678419 398.09232565 -9.76467971 398.60253185 -12.0234375 399.140625 C-69.96450732 412.20402571 -137.76521497 402.17762374 -188.05761719 370.63867188 C-197.86307341 364.19136375 -206.88609313 356.86584953 -215.6875 349.125 C-216.51507813 348.41988281 -217.34265625 347.71476562 -218.1953125 346.98828125 C-221.17155394 344.44407486 -223.50000513 342.40624231 -225.6875 339.125 C-226.3475 339.125 -227.0075 339.125 -227.6875 339.125 C-228.0278125 339.87523437 -228.368125 340.62546875 -228.71875 341.3984375 C-238.62682148 362.32133313 -255.34059769 375.85104391 -276.6875 384.125 C-304.54723688 393.89348324 -333.13710864 396.312246 -362.46679688 396.23852539 C-364.07504779 396.2382424 -365.68329884 396.23840343 -367.29154968 396.2389679 C-371.60245986 396.23925151 -375.91334146 396.23342617 -380.22424507 396.22639394 C-384.74987768 396.22008694 -389.27551114 396.21955085 -393.80114746 396.21836853 C-402.34649375 396.21527667 -410.89182704 396.20709257 -419.43716764 396.19701904 C-429.1761666 396.1857908 -438.91516621 396.18033064 -448.65417004 396.17532361 C-468.66528724 396.16490786 -488.6763928 396.14735052 -508.6875 396.125 C-510.11419883 392.68427175 -511.53418613 389.24080987 -512.953125 385.796875 C-513.35096191 384.83765137 -513.74879883 383.87842773 -514.15869141 382.89013672 C-519.91797136 368.88648874 -524.4393199 354.52948543 -528.37109375 339.91796875 C-529.61217512 335.33305127 -530.96741561 330.78520896 -532.32495117 326.23364258 C-535.17750431 316.64758844 -537.72440398 307.08947068 -539.7890625 297.3046875 C-540.93316115 291.88726673 -542.29819676 286.53006598 -543.66015625 281.1640625 C-543.8195166 280.53177734 -543.97887695 279.89949219 -544.14306641 279.24804688 C-544.53484141 277.72030003 -544.93976291 276.19590256 -545.35302734 274.67382812 C-547.90282482 265.01535073 -549.51485056 255.21389974 -551.1875 245.375 C-551.77942604 241.92156019 -552.37397989 238.46857594 -552.96875 235.015625 C-553.11396591 234.16831314 -553.25918182 233.32100128 -553.40879822 232.44801331 C-554.2916887 227.32189332 -555.23584954 222.21257003 -556.22265625 217.10546875 C-557.97659812 207.84061082 -559.3135172 198.52384378 -560.625 189.1875 C-560.75478241 188.26628357 -560.88456482 187.34506714 -561.01828003 186.39593506 C-561.80412187 180.80528484 -562.57884297 175.21317973 -563.34509277 169.61981201 C-563.65100987 167.3908706 -563.96025057 165.16242238 -564.27050781 162.93408203 C-569.60744152 124.09306451 -572.198587 84.80719579 -574.5 45.6875 C-574.5632547 44.63678314 -574.6265094 43.58606628 -574.69168091 42.50350952 C-574.87106625 39.48318521 -575.04086927 36.46248428 -575.20703125 33.44140625 C-575.25676086 32.60290131 -575.30649048 31.76439636 -575.35772705 30.90048218 C-575.69883733 24.34457927 -575.71110515 17.79993407 -575.69975281 11.23716736 C-575.69886831 10.26356246 -575.69798381 9.28995757 -575.69707251 8.2868495 C-575.694776 5.89956385 -575.6915601 3.51228319 -575.6875 1.125 C-545.12225062 1.0563454 -514.55701913 1.0033597 -483.9917109 0.97180401 C-480.37118279 0.96805255 -476.75065483 0.96416952 -473.13012695 0.96020508 C-472.4094407 0.95941815 -471.68875445 0.95863122 -470.94622923 0.95782044 C-459.32522892 0.94481856 -447.7042738 0.921194 -436.08330017 0.89354161 C-424.13105076 0.86534126 -412.17882479 0.84879308 -400.22654349 0.84273452 C-393.52494912 0.83901191 -386.82346293 0.82978836 -380.12190056 0.80780983 C-373.79607207 0.7872344 -367.47038622 0.78120815 -361.14452744 0.78567696 C-358.84016071 0.78486107 -356.53578851 0.77902232 -354.23145103 0.76738358 C-333.67906678 0.66879289 -313.46092879 2.18283114 -293.6875 8.125 C-293.02121582 8.32432129 -292.35493164 8.52364258 -291.66845703 8.72900391 C-268.74290239 15.75100237 -248.77386001 26.74776461 -236.6875 48.125 C-234.58755261 52.08102992 -232.58619805 56.06869053 -230.6875 60.125 C-230.16542969 59.57972656 -229.64335937 59.03445313 -229.10546875 58.47265625 C-223.31183007 52.53696688 -217.23589063 47.21169629 -210.6875 42.125 C-210.13320313 41.69429199 -209.57890625 41.26358398 -209.0078125 40.81982422 C-180.42880898 18.79017567 -147.90823134 5.32730106 -112.6875 -1.875 C-111.38643311 -2.14618652 -111.38643311 -2.14618652 -110.05908203 -2.42285156 C-74.77453916 -9.37608371 -35.20992653 -5.75754144 0 0 Z " fill="#171C45" transform="translate(703.6875,246.875)"/>
<path d="M0 0 C190.08 0 380.16 0 576 0 C574.12484805 5.62545585 571.89281229 10.59876041 569.25 15.875 C568.77046875 16.83245117 568.2909375 17.78990234 567.796875 18.77636719 C562.02227997 30.1377356 555.5478842 41.07213812 549 52 C548.02852247 53.63924982 547.05716066 55.27856822 546.0859375 56.91796875 C533.32996951 78.287737 518.30326736 98.21694764 502 117 C501.38898438 117.7115625 500.77796875 118.423125 500.1484375 119.15625 C498.44987907 121.12045975 496.72889279 123.06244774 495 125 C494.319375 125.7734375 493.63875 126.546875 492.9375 127.34375 C486.30664878 134.73969943 479.32606334 141.78215183 472.3125 148.8125 C471.81540527 149.31218292 471.31831055 149.81186584 470.80615234 150.32669067 C465.05155004 156.10487547 459.22037183 161.72208226 453 167 C452.03578125 167.845625 451.0715625 168.69125 450.078125 169.5625 C440.42887012 177.87898487 430.28255098 185.48725154 420 193 C419.2073877 193.58152832 418.41477539 194.16305664 417.59814453 194.76220703 C385.47547028 218.2001841 350.23544397 236.8069791 314 253 C312.82630859 253.52625977 311.65261719 254.05251953 310.44335938 254.59472656 C307.1380264 256.06448925 303.82265255 257.50738395 300.5 258.9375 C299.03191895 259.58489136 299.03191895 259.58489136 297.53417969 260.24536133 C296.62571289 260.62716553 295.71724609 261.00896973 294.78125 261.40234375 C293.99814453 261.73741943 293.21503906 262.07249512 292.40820312 262.41772461 C287.55268538 263.59173209 283.24549013 261.87562589 278.78125 259.98828125 C277.78222656 259.56764404 276.78320312 259.14700684 275.75390625 258.71362305 C274.68011719 258.25125244 273.60632813 257.78888184 272.5 257.3125 C271.36433594 256.82628174 270.22867187 256.34006348 269.05859375 255.83911133 C224.15822038 236.45170175 181.53433261 213.34701257 143 183 C141.85259366 182.119748 140.70412081 181.24088478 139.5546875 180.36328125 C132.41072033 174.87843751 125.67485134 169.11221452 119.1328125 162.921875 C116.93939482 160.84865899 114.68860019 158.86723692 112.39453125 156.90625 C107.10680773 152.30308659 102.16405165 147.35009197 97.2097168 142.39501953 C95.57424118 140.76172552 93.93092292 139.1366153 92.28710938 137.51171875 C86.46685558 131.72167597 81.02014693 125.84310036 75.92993164 119.39135742 C74.00710488 117.00880358 71.98063358 114.78385664 69.875 112.5625 C48.52193399 89.05555951 31.59057189 61.07437399 16.390625 33.3359375 C14.78438738 30.40699354 13.14865156 27.49791976 11.484375 24.6015625 C11.07727295 23.89032227 10.6701709 23.17908203 10.25073242 22.44628906 C9.48991055 21.12004851 8.72483623 19.79623285 7.9543457 18.47558594 C5.8230838 14.74625135 4.14152214 11.02966266 2.70874023 6.97900391 C1.86738608 4.6297043 0.92677308 2.3169327 0 0 Z " fill="#181D45" transform="translate(212,682)"/>
<path d="M0 0 C2.18096339 0.97475126 4.34266737 1.99289691 6.4921875 3.03515625 C7.83039894 3.6784964 9.16887212 4.32129231 10.50756836 4.96362305 C11.57151321 5.47570816 11.57151321 5.47570816 12.6569519 5.99813843 C57.92109161 27.71877244 105.5648906 47.05710064 154.02392578 60.44628906 C156.12518553 61.03507793 158.21683254 61.65177475 160.30859375 62.2734375 C186.79494675 70.09030308 213.65812433 76.82214847 240.71777344 82.32324219 C243.97662502 82.99518034 247.22670127 83.70001123 250.4765625 84.4140625 C284.69835002 91.85586776 319.34158011 97.07007875 354.10668945 101.18554688 C355.08589355 101.3018898 356.06509766 101.41823273 357.07397461 101.5381012 C358.90470579 101.75423579 360.73582637 101.96710633 362.56738281 102.1761322 C363.77890015 102.31795677 363.77890015 102.31795677 365.01489258 102.46264648 C365.71616776 102.54288559 366.41744293 102.62312469 367.13996887 102.70579529 C369 103 369 103 372 104 C372.02539952 109.75357772 372.04317612 115.50712038 372.05493164 121.26074219 C372.05985031 123.20345632 372.0665847 125.14616701 372.07543945 127.08886719 C372.14786756 143.43205745 371.58410926 159.64494076 371 176 C124.16 176 -122.68 176 -377 176 C-378.125 161.375 -378.125 161.375 -378.11352539 156.1081543 C-378.11344986 154.92791183 -378.11337433 153.74766937 -378.11329651 152.53166199 C-378.10813522 151.30820572 -378.10297394 150.08474945 -378.09765625 148.82421875 C-378.09553383 146.88746025 -378.09553383 146.88746025 -378.09336853 144.91157532 C-378.08960297 141.5267635 -378.07982587 138.14199658 -378.06866455 134.75720215 C-378.05832003 131.28410448 -378.05384336 127.81099935 -378.04882812 124.33789062 C-378.03819638 117.55857564 -378.02119444 110.77928999 -378 104 C-377.37107849 103.91754028 -376.74215698 103.83508057 -376.09417725 103.75012207 C-344.08327826 99.54252797 -312.24574832 94.96055264 -280.53076172 88.86230469 C-276.47525839 88.08520864 -272.41407273 87.35063899 -268.34765625 86.6328125 C-252.9901183 83.91408676 -237.84840448 80.50910065 -222.68359375 76.87304688 C-217.89994539 75.73927656 -213.10509595 74.65812477 -208.30957031 73.57592773 C-199.88374624 71.66834361 -191.52951134 69.74921839 -183.3125 67.05859375 C-177.98553191 65.35622541 -172.59476496 63.87604148 -167.2097168 62.36914062 C-151.89461366 58.04403516 -136.81154647 53.00248655 -121.75 47.875 C-120.30201019 47.38211487 -120.30201019 47.38211487 -118.82476807 46.87927246 C-102.68502809 41.37132677 -86.76000546 35.52574123 -71 29 C-69.91170898 28.55205078 -68.82341797 28.10410156 -67.70214844 27.64257812 C-50.21049149 20.420547 -32.8598417 12.82411082 -15.86328125 4.49609375 C-15.07832275 4.11477295 -14.29336426 3.73345215 -13.48461914 3.34057617 C-12.04229852 2.63667076 -10.60483726 1.92267758 -9.17358398 1.1965332 C-5.57293355 -0.56025248 -3.7733549 -1.31761971 0 0 Z " fill="#171C45" transform="translate(503,39)"/>
<path d="M0 0 C38.94 0 77.88 0 118 0 C118 14.6387576 118 14.6387576 117.37890625 19.703125 C117.24806641 20.78464844 117.11722656 21.86617188 116.98242188 22.98046875 C116.84384766 24.05941406 116.70527344 25.13835937 116.5625 26.25 C116.36043945 27.93802734 116.36043945 27.93802734 116.15429688 29.66015625 C115.13770812 37.86229188 115.13770812 37.86229188 114 39 C113.70245915 40.60476058 113.46293918 42.22032976 113.24731445 43.83813477 C113.10635849 44.87710907 112.96540253 45.91608337 112.82017517 46.98654175 C112.66940018 48.12664703 112.51862518 49.26675232 112.36328125 50.44140625 C112.03342192 52.87138972 111.70316528 55.30131927 111.37255859 57.73120117 C111.11330597 59.65009659 111.11330597 59.65009659 110.84881592 61.60775757 C107.98929737 82.6935746 104.96989664 103.6600775 100.70458984 124.51074219 C99.97598172 128.1189429 99.29067043 131.7334176 98.61328125 135.3515625 C95.07023908 154.05490207 90.56792029 172.42883806 85.59637451 190.79620361 C85.20275823 192.25074286 84.81035798 193.7056118 84.41925049 195.16082764 C78.50434722 217.16858736 71.57684149 238.75874146 64.1015625 260.28515625 C63.84772293 261.01919174 63.59388336 261.75322723 63.33235168 262.50950623 C61.37908052 268.0877607 59.20116418 273.49708955 57 279 C38.19 279 19.38 279 0 279 C0 186.93 0 94.86 0 0 Z " fill="#C4271E" transform="translate(746,370)"/>
<path d="M0 0 C41.58 0 83.16 0 126 0 C126 15.90499375 125.79541554 31.39389483 124.5625 47.1875 C124.42558681 49.02662996 124.28951947 50.86582309 124.15429688 52.70507812 C123.89518056 56.2157916 123.63016641 59.72597083 123.35986328 63.23583984 C123.13014797 66.23535553 122.91289052 69.235077 122.71435547 72.23681641 C122.59084717 74.0937915 122.59084717 74.0937915 122.46484375 75.98828125 C122.36417603 77.56863159 122.36417603 77.56863159 122.26147461 79.1809082 C122.01383584 81.85082876 121.54845096 84.37834412 121 87 C120.80573352 89.33119771 120.64090701 91.6649695 120.5 94 C120.2488232 98.16235848 119.82207133 101.88964334 119 106 C79.73 106 40.46 106 0 106 C0 71.02 0 36.04 0 0 Z " fill="#C4261E" transform="translate(746,253)"/>
<path d="M0 0 C8.415 -0.061875 16.83 -0.12375 25.5 -0.1875 C29.43196289 -0.22846802 29.43196289 -0.22846802 33.44335938 -0.27026367 C70.76005056 -0.49918759 70.76005056 -0.49918759 84.9375 12.1875 C92.84884052 20.87256575 94.49888371 31.77040719 94.27734375 43.0703125 C93.63590842 52.15881879 90.50814893 60.50647613 84 67 C70.66725192 78.32596332 54.06217576 81.36936308 37.109375 81.1953125 C36.15820801 81.19329834 35.20704102 81.19128418 34.22705078 81.18920898 C30.73465019 81.17888634 27.24231931 81.15096605 23.75 81.125 C11.99375 81.063125 11.99375 81.063125 0 81 C0 54.27 0 27.54 0 0 Z " fill="#FDFDFE" transform="translate(255,481)"/>
<path d="M0 0 C8.064375 -0.0825 16.12875 -0.165 24.4375 -0.25 C28.19918579 -0.30462402 28.19918579 -0.30462402 32.03686523 -0.36035156 C48.22758978 -0.49695353 63.82208674 0.22455772 78 9 C79.36125 9.8353125 79.36125 9.8353125 80.75 10.6875 C88.70825492 18.86681756 90.98938261 27.81260123 91.375 38.875 C91.2167026 49.34524206 87.6537255 58.44514096 80.3125 66 C76.60292534 69.0120478 72.50227562 70.61633157 68.0625 72.25 C67.41385986 72.49621094 66.76521973 72.74242187 66.09692383 72.99609375 C51.5215318 77.99435726 35.67931385 77.25665969 20.5 77.125 C13.735 77.08375 6.97 77.0425 0 77 C0 51.59 0 26.18 0 0 Z " fill="#FBFBFC" transform="translate(254,323)"/>
<path d="M0 0 C0.33 0 0.66 0 1 0 C7.56020795 51.84372495 7.56020795 51.84372495 10 75 C10.77306992 75.05410538 11.54613983 75.10821075 12.34263611 75.16395569 C20.67177059 75.7724366 28.95775438 76.60513421 37.25390625 77.55859375 C38.55778793 77.70780777 39.86166962 77.85702179 41.20506287 78.01075745 C43.93551758 78.32401823 46.66570048 78.63954443 49.39575195 78.95629883 C52.88837961 79.36100322 56.38201088 79.7562652 59.875947 80.1494894 C63.23186943 80.5292484 66.58653745 80.91963801 69.94140625 81.30859375 C71.81790611 81.51807899 71.81790611 81.51807899 73.73231506 81.73179626 C75.47078957 81.93694603 75.47078957 81.93694603 77.24438477 82.14624023 C78.77108543 82.32158546 78.77108543 82.32158546 80.32862854 82.50047302 C82.8998318 82.98126928 84.74695715 83.69971697 87 85 C85.72898437 85.14695312 84.45796875 85.29390625 83.1484375 85.4453125 C72.20218646 86.72932732 61.26933046 88.08598953 50.34375 89.53515625 C49.32254059 89.67020569 48.30133118 89.80525513 47.24917603 89.94439697 C42.06816535 90.62992433 36.88788986 91.32042871 31.70849609 92.01806641 C29.76141813 92.27655483 27.81431625 92.53486316 25.8671875 92.79296875 C24.97632446 92.91470963 24.08546143 93.0364505 23.16760254 93.16188049 C18.39595235 93.78938165 13.81270884 94.125921 9 94 C9.04640625 94.86496094 9.0928125 95.72992188 9.140625 96.62109375 C9.42209123 106.4422548 8.24348939 115.59858595 6.57006836 125.26953125 C5.00993798 134.44628043 4.09838576 143.59401859 3.39453125 152.87109375 C3.26302083 154.58072917 3.13151042 156.29036458 3 158 C2.93345215 158.92699707 2.8669043 159.85399414 2.79833984 160.80908203 C2.72437988 161.70868652 2.65041992 162.60829102 2.57421875 163.53515625 C2.51194092 164.34476807 2.44966309 165.15437988 2.38549805 165.98852539 C2 168 2 168 0 170 C-1.64702751 162.41676359 -2.76405638 154.82233364 -3.7265625 147.125 C-3.87910492 145.9198877 -4.03164734 144.71477539 -4.18881226 143.47314453 C-4.50830354 140.93871471 -4.82586888 138.40404143 -5.14160156 135.86914062 C-5.62365422 132.01077164 -6.11620265 128.15383646 -6.609375 124.296875 C-6.91991141 121.82299699 -7.22982804 119.34904109 -7.5390625 116.875 C-7.68590485 115.73305176 -7.83274719 114.59110352 -7.98403931 113.41455078 C-8.78398012 106.90366528 -9.19419527 100.5594846 -9 94 C-9.68901398 93.94194183 -10.37802795 93.88388367 -11.08792114 93.82406616 C-18.4123707 93.19918229 -25.70072546 92.34501935 -32.99563599 91.44299316 C-36.59038432 90.99863223 -40.18583691 90.56003821 -43.78125 90.12109375 C-44.52665543 90.02998322 -45.27206085 89.93887268 -46.04005432 89.84500122 C-54.71113471 88.78736199 -63.38662031 87.76739224 -72.0625 86.75 C-72.81822296 86.6613266 -73.57394592 86.5726532 -74.35256958 86.48129272 C-78.56828527 85.98671993 -82.78409519 85.49295851 -87 85 C-83.54417308 82.69611538 -81.52096263 82.50861019 -77.4206543 82.03857422 C-76.7568576 81.9602536 -76.09306091 81.88193298 -75.40914917 81.80123901 C-73.21501024 81.5444513 -71.01973472 81.29939904 -68.82421875 81.0546875 C-67.29581245 80.87879748 -65.76747767 80.70228501 -64.23921204 80.525177 C-61.03445402 80.15549191 -57.82914293 79.79122592 -54.62329102 79.43115234 C-50.52352694 78.97054803 -46.4249983 78.4999033 -42.32680035 78.02558708 C-39.16919707 77.66069414 -36.0111797 77.29950184 -32.85300636 76.93957901 C-31.34231888 76.7672879 -29.83171647 76.59424903 -28.32120323 76.42043686 C-26.20368917 76.17768027 -24.08570975 75.93949926 -21.9675293 75.70263672 C-20.76412399 75.56654999 -19.56071869 75.43046326 -18.32084656 75.29025269 C-15.19267394 75.01684032 -12.13797759 74.94626552 -9 75 C-9.07154297 73.13408203 -9.07154297 73.13408203 -9.14453125 71.23046875 C-9.13994946 62.5357651 -7.78484967 53.92199858 -6.6875 45.3125 C-6.45693501 43.472058 -6.22679361 41.63156288 -5.99707031 39.79101562 C-5.43825265 35.32596311 -4.8720428 30.86188354 -4.30389404 26.39801025 C-3.87449198 23.0096235 -3.45503559 19.62004846 -3.03515625 16.23046875 C-2.77408889 14.15356385 -2.5124376 12.0767322 -2.25 10 C-2.07730591 8.60648315 -2.07730591 8.60648315 -1.90112305 7.18481445 C-1.11622256 1.11622256 -1.11622256 1.11622256 0 0 Z " fill="#F6F6F8" transform="translate(472,358)"/>
<path d="M0 0 C6.6 0 13.2 0 20 0 C20.48210937 1.67449219 20.96421875 3.34898437 21.4609375 5.07421875 C22.0988254 7.2786843 22.73685357 9.48310927 23.375 11.6875 C23.69210937 12.79029297 24.00921875 13.89308594 24.3359375 15.02929688 C24.8 16.6293457 24.8 16.6293457 25.2734375 18.26171875 C25.55622559 19.24100342 25.83901367 20.22028809 26.13037109 21.22924805 C26.95724011 23.86376138 27.97450615 26.43626537 29 29 C32.3 19.43 35.6 9.86 39 0 C45.27 0 51.54 0 58 0 C58 15.84 58 31.68 58 48 C54.04 48 50.08 48 46 48 C45.67 37.77 45.34 27.54 45 17 C43.535625 21.186875 42.07125 25.37375 40.5625 29.6875 C40.10174072 30.99936279 39.64098145 32.31122559 39.16625977 33.6628418 C38.80330811 34.70609619 38.44035645 35.74935059 38.06640625 36.82421875 C37.69459229 37.88729248 37.32277832 38.95036621 36.93969727 40.0456543 C35.84373949 43.30319197 35.84373949 43.30319197 35 48 C31.04 48 27.08 48 23 48 C19.66666667 37.33333333 16.33333333 26.66666667 13 16 C12.67 26.56 12.34 37.12 12 48 C8.04 48 4.08 48 0 48 C0 32.16 0 16.32 0 0 Z " fill="#F5F5F7" transform="translate(321,748)"/>
<path d="M0 0 C5.28 0 10.56 0 16 0 C17.58438593 2.99944817 19.16753454 5.99953881 20.75 9 C21.1934375 9.83917969 21.636875 10.67835938 22.09375 11.54296875 C23.40228437 14.02533542 24.70355224 16.51130121 26 19 C26.5868457 20.12341797 26.5868457 20.12341797 27.18554688 21.26953125 C27.72018555 22.31173828 27.72018555 22.31173828 28.265625 23.375 C28.57790039 23.98085938 28.89017578 24.58671875 29.21191406 25.2109375 C30 27 30 27 31 31 C31.33 20.77 31.66 10.54 32 0 C35.63 0 39.26 0 43 0 C43 15.84 43 31.68 43 48 C37.72 48 32.44 48 27 48 C26.24074219 46.40929687 25.48148438 44.81859375 24.69921875 43.1796875 C23.6953409 41.07811143 22.69143307 38.97654969 21.6875 36.875 C21.18798828 35.82828125 20.68847656 34.7815625 20.17382812 33.703125 C19.68720703 32.68476562 19.20058594 31.66640625 18.69921875 30.6171875 C18.25408936 29.68503418 17.80895996 28.75288086 17.3503418 27.79248047 C15.92681244 24.84864955 14.46236632 21.92473264 13 19 C12.67 28.57 12.34 38.14 12 48 C8.04 48 4.08 48 0 48 C0 32.16 0 16.32 0 0 Z " fill="#F2F2F4" transform="translate(589,748)"/>
<path d="M0 0 C4.125 -0.0825 8.25 -0.165 12.5 -0.25 C13.78455078 -0.28641602 15.06910156 -0.32283203 16.39257812 -0.36035156 C23.39470188 -0.42788916 28.14783911 0.01495711 34 4 C36.41562988 7.84557171 36.41338004 11.57595404 36 16 C35.3125 18.875 35.3125 18.875 34 21 C32.35619011 21.7211874 30.68967412 22.39401025 29 23 C29.31453125 23.55945313 29.6290625 24.11890625 29.953125 24.6953125 C33.77553422 31.85657314 35.97754809 39.15876188 38 47 C33.71 47 29.42 47 25 47 C24.05598958 44.03776042 23.11197917 41.07552083 22.16796875 38.11328125 C21.01139641 35.03037773 20.06296109 32.57290653 18 30 C16.02 29.67 14.04 29.34 12 29 C12 34.94 12 40.88 12 47 C8.04 47 4.08 47 0 47 C0 31.49 0 15.98 0 0 Z " fill="#F9F9FA" transform="translate(444,748)"/>
<path d="M0 0 C5.28 0 10.56 0 16 0 C18.42738119 6.35136896 20.84829001 12.70515182 23.26318359 19.0612793 C24.0859432 21.22406843 24.91048028 23.38618224 25.73681641 25.54760742 C26.92295675 28.65108026 28.10272357 31.75691042 29.28125 34.86328125 C29.65310425 35.83211746 30.0249585 36.80095367 30.40808105 37.79914856 C30.74843384 38.6998558 31.08878662 39.60056305 31.43945312 40.52856445 C31.7414563 41.32132278 32.04345947 42.11408112 32.35461426 42.93086243 C33 45 33 45 33 48 C28.71 48 24.42 48 20 48 C18.68 44.7 17.36 41.4 16 38 C10.39 38 4.78 38 -1 38 C-2.98 42.95 -2.98 42.95 -5 48 C-8.96 48 -12.92 48 -17 48 C-16.34656805 42.5642356 -14.59484795 37.81235883 -12.65625 32.734375 C-12.32709595 31.85976624 -11.99794189 30.98515747 -11.65881348 30.08404541 C-10.61100302 27.30406282 -9.55548203 24.52707766 -8.5 21.75 C-7.7898846 19.86736848 -7.08024404 17.98455777 -6.37109375 16.1015625 C-5.07499539 12.66790806 -3.77872384 9.2343297 -2.47460938 5.80371094 C-2.2133728 5.11565369 -1.95213623 4.42759644 -1.6829834 3.71868896 C-1 2 -1 2 0 0 Z " fill="#F4F4F6" transform="translate(404,748)"/>
<path d="M0 0 C5.28 0 10.56 0 16 0 C20.583187 11.34274772 25.08541254 22.71550109 29.5 34.125 C29.94520996 35.26888184 30.39041992 36.41276367 30.84912109 37.59130859 C31.25984863 38.65687988 31.67057617 39.72245117 32.09375 40.8203125 C32.46177734 41.77180176 32.82980469 42.72329102 33.20898438 43.70361328 C34 46 34 46 34 48 C29.38 48 24.76 48 20 48 C17 40.375 17 40.375 17 37 C11.06 37 5.12 37 -1 37 C-1.99 40.63 -2.98 44.26 -4 48 C-8.29 48 -12.58 48 -17 48 C-15.09479428 41.47435498 -13.01953202 35.07907052 -10.64453125 28.7109375 C-10.18478157 27.46698715 -10.18478157 27.46698715 -9.71574402 26.19790649 C-8.75085873 23.58920019 -7.78176277 20.98208258 -6.8125 18.375 C-6.15141159 16.58994784 -5.49060188 14.80479243 -4.83007812 13.01953125 C-3.22326544 8.67848956 -1.61267859 4.33886577 0 0 Z " fill="#F3F3F5" transform="translate(656,748)"/>
<path d="M0 0 C3.96 0 7.92 0 12 0 C12.33 5.94 12.66 11.88 13 18 C13.66 18 14.32 18 15 18 C15.12874512 17.4112207 15.25749023 16.82244141 15.39013672 16.21582031 C17.00695012 10.34144143 21.1607791 3.78169885 26 0 C30.90859133 -1.63208192 35.98428846 -0.84263954 41 0 C40.21625 1.051875 39.4325 2.10375 38.625 3.1875 C38.09132813 3.909375 37.55765625 4.63125 37.0078125 5.375 C35.47689855 7.37650617 33.91730318 9.31621348 32.3046875 11.25 C31.84239746 11.8169458 31.38010742 12.3838916 30.90380859 12.96801758 C29.97578249 14.10472851 29.03348633 15.22995217 28.07666016 16.3425293 C26.58512924 18.11052942 26.58512924 18.11052942 25 21 C25.75359414 25.50043606 29.0144657 28.87668871 31.8125 32.375 C32.71297348 33.52416488 33.61272023 34.67389962 34.51171875 35.82421875 C34.94145996 36.37126465 35.37120117 36.91831055 35.81396484 37.48193359 C42 45.39975298 42 45.39975298 42 48 C36.6889869 48.94886586 31.18722852 49.89791831 26 48 C21.75267756 44.21312814 19.2742742 38.89686755 16.89111328 33.80932617 C15.92095189 31.74059983 15.92095189 31.74059983 14 29 C13.67 35.27 13.34 41.54 13 48 C8.71 48 4.42 48 0 48 C0 32.16 0 16.32 0 0 Z " fill="#F4F4F6" transform="translate(515,748)"/>
<path d="M0 0 C190.08 0 380.16 0 576 0 C575.67 0.66 575.34 1.32 575 2 C573.7904248 1.99924056 572.58084959 1.99848112 571.33462059 1.99769866 C518.05193048 1.96437592 464.76923941 1.93351827 411.48654175 1.91531372 C410.68044799 1.91503761 409.87435423 1.91476149 409.04383338 1.91447701 C391.52717974 1.90849184 374.01052598 1.90295138 356.49387205 1.89786934 C347.90428056 1.89537457 339.3146891 1.89278147 330.72509766 1.89013672 C329.87030915 1.8898752 329.01552065 1.88961368 328.13482947 1.88934424 C300.40576968 1.88081456 272.67671801 1.86578675 244.94766315 1.84740556 C216.4633695 1.82855793 187.97908034 1.8162332 159.49478056 1.81217002 C155.47580783 1.81159367 151.45683511 1.8109424 147.4378624 1.81024551 C146.64683517 1.81011067 145.85580794 1.80997582 145.04081019 1.80983689 C132.2838881 1.80746923 119.52697989 1.79818176 106.77006347 1.78633593 C93.9593335 1.77458674 81.14861735 1.77005768 68.33788218 1.77299725 C60.71756045 1.77452371 53.09728914 1.77041584 45.47697647 1.75840491 C39.80083034 1.75006589 34.12472661 1.75205343 28.44857942 1.75820221 C26.14169365 1.75905341 23.83480374 1.75646352 21.52792622 1.75023364 C18.41160855 1.7423017 15.29554473 1.74647557 12.17923164 1.75390434 C10.8105843 1.7460233 10.8105843 1.7460233 9.41428751 1.73798305 C4.72418804 1.53345382 4.72418804 1.53345382 1 4 C0.67 2.68 0.34 1.36 0 0 Z " fill="#404466" transform="translate(212,682)"/>
<path d="M0 0 C3.96 0 7.92 0 12 0 C12 15.84 12 31.68 12 48 C8.04 48 4.08 48 0 48 C0 32.16 0 16.32 0 0 Z " fill="#F8F8F9" transform="translate(566,748)"/>
<path d="M0 0 C3.96 0 7.92 0 12 0 C12 15.84 12 31.68 12 48 C8.04 48 4.08 48 0 48 C0 32.16 0 16.32 0 0 Z " fill="#F7F8F9" transform="translate(492,748)"/>
<path d="M0 0 C0.66 0 1.32 0 2 0 C2.12117188 0.58007812 2.24234375 1.16015625 2.3671875 1.7578125 C3.13926288 5.35687156 3.93961267 8.82219285 5.125 12.3125 C6 15 6 15 6 19 C2.04 19 -1.92 19 -6 19 C-4.29446483 12.50272314 -2.47390635 6.2436684 0 0 Z " fill="#3D4163" transform="translate(412,758)"/>
<path d="M0 0 C7.08932806 -0.36047431 7.08932806 -0.36047431 11 1.1875 C13 3 13 3 13.5625 5.5 C13 8 13 8 11.5625 9.8125 C7.66280981 11.6196735 4.2730991 11.18851908 0 11 C0 7.37 0 3.74 0 0 Z " fill="#272C52" transform="translate(456,757)"/>
<path d="M0 0 C0.66 0 1.32 0 2 0 C2.67155349 2.26949102 3.3373963 4.5403961 4 6.8125 C4.37125 8.07707031 4.7425 9.34164062 5.125 10.64453125 C6 14 6 14 6 17 C2.7 17 -0.6 17 -4 17 C-3.45018084 10.95198929 -2.09570426 5.69398894 0 0 Z " fill="#23284F" transform="translate(664,759)"/>
<path d="M0 0 C0.33 0 0.66 0 1 0 C1.12117188 1.14339844 1.24234375 2.28679687 1.3671875 3.46484375 C1.53597321 4.95578417 1.70527047 6.44666673 1.875 7.9375 C1.95363281 8.69224609 2.03226562 9.44699219 2.11328125 10.22460938 C2.33883808 12.15919299 2.66258974 14.08176019 3 16 C3.66 16.33 4.32 16.66 5 17 C5.1953125 23.0546875 5.1953125 23.0546875 5 25 C4.34 25.66 3.68 26.32 3 27 C1.08505216 17.92723742 -0.19368956 9.29709895 0 0 Z " fill="#A5A7B7" transform="translate(469,501)"/>
<path d="M0 0 C0.66 0.33 1.32 0.66 2 1 C-2.29 5.29 -6.58 9.58 -11 14 C-11.66 13.67 -12.32 13.34 -13 13 C-9.0580583 8.11950075 -4.88049925 3.9419417 0 0 Z " fill="#DADBE2" transform="translate(600,364)"/>
<path d="M0 0 C1.8871875 0.061875 1.8871875 0.061875 3.8125 0.125 C3.8125 1.115 3.8125 2.105 3.8125 3.125 C0.1825 2.795 -3.4475 2.465 -7.1875 2.125 C-4.09861478 0.06574319 -3.47814073 -0.1140374 0 0 Z " fill="#C0C1CC" transform="translate(392.1875,440.875)"/>
<path d="M0 0 C0.66 0 1.32 0 2 0 C2 3.96 2 7.92 2 12 C1.67 12 1.34 12 1 12 C0.855625 10.9275 0.71125 9.855 0.5625 8.75 C0.10012053 5.20640191 0.10012053 5.20640191 -0.625 2.625 C-0.74875 2.08875 -0.8725 1.5525 -1 1 C-0.67 0.67 -0.34 0.34 0 0 Z " fill="#555977" transform="translate(472,354)"/>
<path d="M0 0 C0.66 0 1.32 0 2 0 C2.33 1.65 2.66 3.3 3 5 C0.525 6.485 0.525 6.485 -2 8 C-1.34 5.36 -0.68 2.72 0 0 Z " fill="#4D5170" transform="translate(664,759)"/>
</svg>
