<svg width="35" height="35" viewBox="0 0 35 35" fill="none" xmlns="http://www.w3.org/2000/svg">
<g clip-path="url(#clip0_10_59)">
<path d="M25.5209 9.479H25.5354M10.2084 2.9165H24.7917C28.8188 2.9165 32.0834 6.18109 32.0834 10.2082V24.7915C32.0834 28.8186 28.8188 32.0832 24.7917 32.0832H10.2084C6.18128 32.0832 2.91669 28.8186 2.91669 24.7915V10.2082C2.91669 6.18109 6.18128 2.9165 10.2084 2.9165ZM23.3334 16.5811C23.5133 17.7948 23.306 19.0343 22.7409 20.1234C22.1758 21.2125 21.2817 22.0956 20.1857 22.6473C19.0898 23.1989 17.8478 23.3909 16.6364 23.196C15.425 23.0011 14.3059 22.4291 13.4383 21.5615C12.5707 20.6939 11.9988 19.5749 11.8039 18.3635C11.6089 17.1521 11.8009 15.9101 12.3526 14.8141C12.9042 13.7182 13.7874 12.824 14.8765 12.2589C15.9655 11.6938 17.2051 11.4865 18.4188 11.6665C19.6568 11.8501 20.8029 12.427 21.6879 13.312C22.5729 14.1969 23.1498 15.3431 23.3334 16.5811Z" stroke="#1E1E1E" stroke-width="4" stroke-linecap="round" stroke-linejoin="round"/>
</g>
<defs>
<clipPath id="clip0_10_59">
<rect width="35" height="35" fill="white"/>
</clipPath>
</defs>
</svg>
